<?xml version="1.0" encoding="utf-8"?>
<!-- Generator: Adobe Illustrator 24.3.0, SVG Export Plug-In . SVG Version: 6.00 Build 0)  -->
<svg version="1.1" id="Capa_1" xmlns="http://www.w3.org/2000/svg" xmlns:xlink="http://www.w3.org/1999/xlink" x="0px" y="0px"
	 viewBox="0 0 256 256" style="enable-background:new 0 0 256 256;" xml:space="preserve">
<style type="text/css">
	.st0{fill:#EE685B;}
</style>
<g transform="translate(1.4065934065934016 1.4065934065934016) scale(2.81 2.81)">
	<path class="st0" d="M77,13.7H61.2V7.4c0-4.1-3.3-7.4-7.4-7.4H36.3c-4.1,0-7.4,3.3-7.4,7.4v6.2H13.1c-2.1,0-3.8,1.7-3.8,3.8
		s1.7,3.8,3.8,3.8h19.7h24.6H77c2.1,0,3.8-1.7,3.8-3.8C80.8,15.4,79.1,13.7,77,13.7z M36.6,13.7v-6h16.9v6H36.6z"/>
	<path class="st0" d="M14.8,29v53.2c0,4.3,3.3,7.9,7.4,7.9h45.7c4.1,0,7.4-3.5,7.4-7.9V29H14.8z M39.5,74c0,2.2-1.7,4.1-3.8,4.1
		c-2.1,0-3.8-1.8-3.8-4.1V44.1c0-2.3,1.7-4.1,3.8-4.1c2.1,0,3.8,1.8,3.8,4.1V74z M58.2,74c0.1,2.2-1.7,4.1-3.8,4.1
		c-2.1,0-3.8-1.8-3.8-4.1V44.1c0-2.3,1.7-4.1,3.8-4.1c2.1,0,3.8,1.8,3.8,4.1V74z"/>
</g>
</svg>
